<svg width="16" height="15" viewBox="0 0 16 15" fill="none" xmlns="http://www.w3.org/2000/svg">
<path d="M12.6666 0.666687L9.33329 4.00002V11.3334L12.6666 8.33335V0.666687ZM14 3.33335V12.3334C13.2666 12.1 12.4666 12 11.6666 12C10.5333 12 8.89996 12.4334 7.99996 13V4.00002C7.03329 3.26669 5.63329 3.00002 4.33329 3.00002C3.03329 3.00002 1.63329 3.26669 0.666626 4.00002V13.7667C0.666626 13.9334 0.833293 14.1 0.999959 14.1C1.06663 14.1 1.09996 14.0667 1.16663 14.0667C2.06663 13.6334 3.36663 13.3334 4.33329 13.3334C5.63329 13.3334 7.03329 13.6 7.99996 14.3334C8.89996 13.7667 10.5333 13.3334 11.6666 13.3334C12.7666 13.3334 13.9 13.5334 14.8333 14.0334C14.9 14.0667 14.9333 14.0667 15 14.0667C15.1666 14.0667 15.3333 13.9 15.3333 13.7334V4.00002C14.9333 3.70002 14.5 3.50002 14 3.33335ZM6.66663 12.2734C5.83329 12.06 4.99996 12 4.33329 12C3.62663 12 2.78663 12.1267 1.99996 12.3334V4.75335C2.60663 4.48669 3.42663 4.33335 4.33329 4.33335C5.23996 4.33335 6.05996 4.48669 6.66663 4.75335V12.2734Z" fill="#E4E7EC"/>
</svg>
