<svg width="240" height="240" viewBox="0 0 240 240" xmlns="http://www.w3.org/2000/svg">
    <path d="M102 8.001a3.6 3.6 0 0 1 2.113 2.052l.3-.096a4.308 4.308 0 0 1 4.8 1.2c.756.984.3 1.464.3 2.184 1.044-.108 1.572-.228 3.24 1.2a4.164 4.164 0 0 1 1.2 3.024c0 .12-.252.696-.252 1.044 1.512.492 1.872 1.908 1.608 3.48a2.784 2.784 0 0 1-1.38 2.028 1.92 1.92 0 0 1-.468 2.904c.12.326.12.683 0 1.008-.696 1.56-1.596 1.296-1.74 1.56-.516.888-1.296 1.608-2.28 1.2-.048 3.084-1.488 7.44-4.128 9.6l.984 5.58c8.388 1.38 15.492 6.084 22.044 11.604.929.8 1.81 1.654 2.64 2.556.146.234-.109.353 1.218-.406l.216-.123c.23-.13.5-.283.817-.46l.332-.185c.872-.484 2.054-1.126 3.657-1.97a73.668 73.668 0 0 1 11.712-4.944 49.668 49.668 0 0 1 7.548-1.8l.372-3.12c-.396-2.076-1.464-7.56-2.4-9.468a9.6 9.6 0 0 1-2.688-1.932 12 12 0 0 1-2.34-1.644c-3.204-3.096-3.408-10.992-1.2-14.724 2.076-3.408 7.2-1.716 8.4-2.916.757-.76 1.147-1.573 1.522-2.38l.15-.322c.68-1.449 1.466-2.855 4.412-3.886a8.4 8.4 0 0 1 4.464-.468c3.288.816 3.36 3.852 8.16 2.652a6.54 6.54 0 0 1 2.4-.324 5.244 5.244 0 0 1 3.384 2.304c3.948 4.932.612 10.896-4.452 11.232.129 1.276.189 2.558.18 3.84a30.636 30.636 0 0 1-1.8 11.628 11.904 11.904 0 0 1-4.548 6l1.932 4.236c1.38-.192 15.168 5.112 26.124 5.532 7.092.276 18.48-13.02 22.692-18.756.18-.348 1.044-.12 1.452 0 .504-.816 1.476-2.208 1.704-2.736a5.604 5.604 0 0 1-1.932-1.992 1.404 1.404 0 0 1 .276-1.488c.648-.78 1.944.216 2.736.804.336-1.524.996-4.428 2.52-4.14.612.108.96.636 1.032 1.404 1.164-1.416 2.58-.972 2.796 0 .08.59.001 1.191-.228 1.74a2.28 2.28 0 0 1 1.896-.228.972.972 0 0 1 .492 1.14c-.132 1.908-2.064 2.964-3.732 3.888a33.744 33.744 0 0 0-1.644 4.008c.804.396 1.128.54.996.828-1.368 2.748-4.572 23.244-21.372 35.244-3.276 2.34-9.048 3.192-13.044 3.348.228 1.488 1.944 12.9 2.016 13.572.342 3.049.737 10.064.956 17.213l.029.998.014.499.025.996.02.855c.177 7.967.085 15.346-.6 16.711-.156.348-.504.348-.864.348-1.296.06-3.912-.06-5.448-.18.132 17.016-.204 34.608-1.404 51.816-2.011 28.918-5.405 41.817-5.54 42.321l-.004.015a.54.54 0 0 1-.492.408h-.672c1.356.708 3.888.888 5.34 1.692a4.572 4.572 0 0 1 1.548 2.1 1.44 1.44 0 0 1-.636 1.836c-1.74.948-12.288.312-13.488-.252a.516.516 0 0 1-.288-.348 41.46 41.46 0 0 1-.816-5.028h-.948a.504.504 0 0 1-.516-.42l-2.79-19.917-.112-.804-.17-1.212-.113-.81-.057-.405-.195-1.393-.195-1.39-.178-1.272-.118-.843c-1.373-9.798-2.59-18.465-2.636-18.754l-9.18 45.948a.48.48 0 0 1-.48.372h-.708c.68.512 1.613.906 2.573 1.282l.787.306c1.654.646 3.203 1.323 3.48 2.552a1.416 1.416 0 0 1-.72 1.632c-1.656.528-13.38.564-14.136-.96-.5-1.61-.866-3.26-1.092-4.932h-.312a.48.48 0 0 1-.468-.408c-5.46-36.252-8.844-54.732-8.844-89.16-2.916-.18-5.652-.42-6.336-.48a.948.948 0 0 1-.6-.312c-1.5-1.68-.108-12.888.168-15.144a264.54 264.54 0 0 1 6.564-33.876l-4.8 1.728a19.704 19.704 0 0 1-10.584 3.516c-.022.255-.259 3.013-.534 5.955l-.054.571-.067.699c-.29 3.02-.595 5.885-.725 6.095 15.12 34.332 16.92 118.044 15.036 119.16-1.248.732-4.272.996-5.712 1.104a55.332 55.332 0 0 1 7.944 5.064c1.08 1.056-.336 3.012-1.644 3.348-.326.085-2.587-.165-5.005-.47l-.662-.083-.302-.04-.602-.078a493.367 493.367 0 0 1-4.498-.612l-.175-.025a1.2 1.2 0 0 1-.768.984c-.648.084-3.924.516-4.8.084a.744.744 0 0 1-.396-.432 31.332 31.332 0 0 1-.612-7.704 7.584 7.584 0 0 1-2.964-.576c-1.764-1.752-11.544-68.664-11.544-69.516-.648-12.432-1.128-12.756-1.932-22.188a.216.216 0 0 0-.42 0c.105 3.015.076 3.66.096 4.43l.003.124.002.047.003.097c.05 1.262.259 3.457 1.264 15.342.146 1.675.07 3.362-.228 5.016-.398 2.241-2.827 16.07-5.585 30.719l-.19 1.011-.096.507-.369 1.942-.378 1.98-.19.989-.19.986-.19.983-.19.98c-2.785 14.332-5.537 27.226-6.614 28.303-.276.24-1.128.24-1.98.24a36.456 36.456 0 0 1-.696 6.06c-.12.504-.792.624-1.32.624a19.584 19.584 0 0 1-3.888-.276c-.456-.084-.672-.528-.768-.984-.356.052-2.782.397-5.294.723l-.686.088c-2.513.319-4.932.59-5.276.497-1.308-.336-2.712-2.292-1.644-3.336a46.248 46.248 0 0 1 6.732-4.38c-1.26-.216-5.076-.636-5.688-1.416a.624.624 0 0 1-.132-.384c-1.2-29.304 1.656-87.12 10.5-117.6-.029-.028-.05-.044-.067-.058l-.012-.01-.015-.015-.013-.017c-.063-.113-.028-.492-.461-3.546l-.082-.567a388.01 388.01 0 0 0-1.354-8.507h-2.016a12 12 0 0 1-9.696-3.072 8.76 8.76 0 0 1-2.304-3.372 14.196 14.196 0 0 1-1.032-2.796l-2.988-2.052c-.193 1.385-.394 4.48-.593 7.733l-.055.89c-.154 2.526-.307 5.062-.456 6.893.493.95.937 1.923 1.332 2.916a.528.528 0 0 1 0 .36c1.344 3.42 3.24 8.928 3.54 9.984 4.416 15.336 4.728 64.068 1.332 65.736a15.792 15.792 0 0 1-3.924.66c-.158 27.42-.244 39.663-.254 45.2v.568l-.001.266v.495c.002 2.99.04 3.242.114 3.399l.022.043c.054.11.126.29.215 1.353 0 1.056-.18 1.692-1.2 1.992a5.412 5.412 0 0 1-2.148.108c-.516-.108-.672-.6-.804-1.092-1.836.6-5.436 2.22-7.836 3.06-1.212.444-2.652 1.032-3.264-.12-.612-1.152.936-2.832 1.86-3.768a35.124 35.124 0 0 1 3.54-3.084c-.007-.031-1.786-10.099-3.799-21.402l-.15-.84-.527-2.961-.231-1.297a4324.654 4324.654 0 0 0-3.91-21.68h-1.5c-.71 4.92-1.942 13.423-3.2 22.11l-.198 1.372-.198 1.372-.199 1.37-.19 1.317-.127.874c-1.723 11.913-3.265 22.591-3.303 22.933-.084.876.288 2.916-.336 3.696-.624.78-2.328.624-3.192.324-.504-.18-.588-.684-.648-1.2-2.424.444-7.788 2.052-9.78 2.232a1.392 1.392 0 0 1-1.62-.84 2.052 2.052 0 0 1 .648-1.932 25.2 25.2 0 0 1 5.64-4.116c0-.031-.42-11.268-.89-23.406l-.033-.859-.05-1.29-.081-2.08c-.37-9.465-.744-18.757-.95-23.077a39.12 39.12 0 0 1-6-1.08c-.708-.204-1.788-.576-2.04-1.272-1.504-4.191-1.58-20.382-1.584-26.061v-.819c.108-9.924.672-20.268 1.872-26.796A84 84 0 0 1 21.6 96.693a53.148 53.148 0 0 1-1.944-5.376c-8.772-1.116-14.424-7.572-13.572-18 .624-7.56 3-14.4 8.832-19.248 3.78-3.12 10.596-4.248 15.468-3.912.252-1.152-.168-3.06.432-3.396v-2.136a5.616 5.616 0 0 1-2.4-1.392 11.46 11.46 0 0 1-1.704-1.992c-1.968-3.108-2.028-7.908-1.656-11.508a1.26 1.26 0 0 1-1.2-.972 10.224 10.224 0 0 1-.132-3.36c.348-2.232 1.392-2.628 1.848-3.432a1.56 1.56 0 0 0-.12-.18c-.768-1.032-.312-3 .192-4.2a7.032 7.032 0 0 1 3.78-4.02 6.168 6.168 0 0 1 5.364-.24c.348-.252.66-.768 1.056-1.032a9.6 9.6 0 0 1 6.432-1.056 6.552 6.552 0 0 1 2.904 2.016 3.3 3.3 0 0 1 1.38-.18 8.16 8.16 0 0 1 3.216.768 7.2 7.2 0 0 1 4.008 5.268c.027.731.12 1.458.276 2.172a3.348 3.348 0 0 1 1.968 1.548 12.096 12.096 0 0 1 1.608 7.476 3.672 3.672 0 0 1-1.068 1.956c-.186.15-.387.279-.6.384.326.87.397 1.816.204 2.724-.24 1.188-.888 2.016-2.76 2.496.14.127.26.272.36.432a3.516 3.516 0 0 1 0 4.032 4.236 4.236 0 0 1-3.6 1.596c.612 2.736-4.92 4.86-7.632.852.048.564.144 1.176.144 1.764.324.156.516 1.224.516 1.572.049.52.049 1.042 0 1.56 7.68-.132 17.616 7.152 23.484 12.012 4.26-6.792 9.072-10.704 17.316-13.716a42.852 42.852 0 0 1 8.4-2.112l.576-5.112a8.04 8.04 0 0 1-2.904-3.144 19.704 19.704 0 0 1-1.68-6.18l-.564-.288c-2.064.3-4.068-.432-4.38-2.46a8.016 8.016 0 0 1 0-1.476c-.288-.18-1.104-.42-1.488-.648-.912-.552-.948-2.388-.828-3.324.12-.936.744-1.212.984-1.56-.036-.072-.156-.216-.156-.288a3.756 3.756 0 0 1-.192-2.064 6.324 6.324 0 0 1 1.932-3.24c.252-.167.533-.289.828-.36a4.32 4.32 0 0 1 .624-2.016c.174-.326.415-.613.708-.84.444-.348.96-.852 1.512-1.2a3.384 3.384 0 0 1 2.112-.552c.348-.432.432-1.368 1.308-1.896 1.932-1.164 5.532-2.064 7.416-.384 1.26-.66 2.292-1.392 3.792-.828zm27.133 215.532c-1.068.06-2.184.12-3.3.12l.012.036c-.69.013-1.305.018-1.855.02h-.528c-4.306-.018-4.034-.344-4.013-.044a35.64 35.64 0 0 0 .744 7.104 16.62 16.62 0 0 0 4.08-.228v-.6a.516.516 0 0 1 .588-.468c2.004.288 8.76 1.236 10.8 1.404.216.024.804.288 1.572-.768.192-.252.408-.696.192-.924-1.32-1.356-6.672-4.656-8.292-5.652zm-54.036.516a61.548 61.548 0 0 0-7.08 4.908c-.396.42.552 1.56 1.2 1.728 0 .132.3 0 .564 0l2.748-.312c3.36-.427 5.335-.712 6.517-.884l.26-.038c1.185-.173 1.44-.208 1.584-.146l.028.014c.019.01.036.023.054.036l.029.022c.109.095.178.228.192.372v.6c1.35.233 2.724.305 4.092.216l.012.036c.381-1.884.634-3.793.756-5.712-2.76-.084-7.224-.396-10.956-.84zm-53.244-49.212c.028.465.078 1.321.144 2.49l.042.737c.238 4.256.645 11.728 1.054 19.513l.075 1.419.074 1.421.074 1.42c.602 11.588 1.146 22.704 1.093 23.844 0 .564-.216.48-1.2 1.068.61.442 1.361.647 2.112.576 1.255-.276 2.964-.53 6.05-.954l.378-.052-.016.002.024-.153a6382.1 6382.1 0 0 1 3.569-22.984l.166-1.061.167-1.065.167-1.067.084-.533.297-1.89c1.35-8.596 2.667-16.92 3.43-21.615-5.472-.156-12.312-.492-17.784-1.116zm37.56.972c-4.164.288-10.572.36-17.364.216l.073.372.043.22a7746.78 7746.78 0 0 1 4.164 21.462l.265 1.372.396 2.06.086.451.173.9c2.01 10.483 3.856 20.275 3.956 21.38.048.563-.132.515-.996 1.2.664.36 1.437.462 2.172.287 1.228-.459 3.027-.984 5.849-1.774l.354-.1.003-.147c.045-3.359.216-13.975.405-24.978l.03-1.77.021-1.182.02-1.18c.125-7.066.25-13.937.35-18.789zm91.884-55.488a88.02 88.02 0 0 1-4.44 12.696c-.228.468-.6 1.272-.96 1.452-1.02.516-6.3.18-7.572.108.156 31.56 3.132 50.184 9.204 88.584l9.264.096c.619-3.109 1.21-6.071 1.777-8.905l.374-1.87 1.08-5.395.346-1.73 1.638-8.19.31-1.555c1.948-9.766 3.573-18.028 5.085-26.147l.265-1.425.131-.712.262-1.424c1.434-7.835 2.79-15.723 4.26-24.895.288-1.788.504-3.132.504-3.828a.204.204 0 0 1 .408 0c.077 2.853-.852 9.4-1.996 16.317l-.165.99-.251 1.491-.19 1.112c-1.369 7.96-2.839 15.657-3.218 18.094.092.317 1.7 11.51 3.346 23.106l.206 1.45.118.835.177 1.249.118.83c1.447 10.216 2.78 19.717 2.971 21.216l.013.103c.007.058.01.091.01.1h9.109l.024-.06c5.604-22.555 7.016-65.151 7.048-90.124v-1.733c0-.568-.002-1.125-.004-1.672a22.704 22.704 0 0 1-4.188-.66.61.61 0 0 1-.063-.026l-.04-.022c-.357-.225-.566-1.136-1.985-7.824-1.974-.104-9.099-.441-16.516-.801l-1.31-.064-.438-.021-1.001-.049c-5.331-.26-10.504-.519-13.711-.697zM50.76 100.941c-1.28.12-2.72.216-4.32.288.18 7.414-.15 21.576-.696 36.027l-.086 2.243-.07 1.755-.065 1.576-.066 1.572c-.51 12.032-1.14 23.517-1.717 30.663h9.06c2.22-13.836.696-59.976-2.04-74.124zm-15.023.36h-.181c-.728 5.861-1.646 18.957-2.379 32.784l-.071 1.362c-.036.682-.07 1.365-.105 2.049l-.068 1.367-.087 1.789-.034.708-.066 1.415c-.597 12.949-.963 25.35-.79 31.882.31.022 2.236.11 4.187.178l.585.02c1.164.038 2.28.066 3.004.066.19-3.37.681-19.156 1.14-35.291l.058-2.018.057-2.016.015-.531.03-1.06c.423-15.172.783-29.402.8-32.505v-.199c-1.01.025-1.828.035-2.522.037h-.499c-1.033-.002-1.785-.023-2.544-.032l-.352-.003-.178-.001zm22.535-1.524a55.12 55.12 0 0 1-3.072.576c2.748 14.556 3.948 59.616 1.548 74.556 1.104-.048 5.628-.24 6.636-.744 2.7-6.972 2.292-50.376-1.716-64.572l-.036.036c-.191-.68-1.09-3.398-2.067-6.212l-.218-.626a219.71 219.71 0 0 0-1.075-3.014zm-32.04.996c-3.432 12.42-4.728 58.884-3.432 73.2h-.072c1.632.144 3.408.324 5.352.468-.322-8.178-.022-22.689.586-37.017l.067-1.562.079-1.742c.61-13.332 1.468-26.065 2.316-32.879 0 0-4.296-.384-4.896-.468zm-5.64-1.08a78.432 78.432 0 0 0-6.396 19.2c-2.544 14.856-1.872 52.104.204 53.424 1.414.566 2.9.934 4.416 1.092-1.668-17.232-.324-61.32 3.036-73.452l-1.26-.264zm135.732-48.996a49.272 49.272 0 0 0-7.344 1.848 89.544 89.544 0 0 0-17.388 8.304c4.596 5.748 7.488 13.056 5.388 20.148a9.528 9.528 0 0 1-2.316 3.684c4.788-1.704 5.724-2.7 9.804-5.436.336-.216.804-.468.996-.648.192-.18.468.12.264.312-.544.63-1.13 1.224-1.752 1.776a21.336 21.336 0 0 1-5.256 3.264c-.009.219-.072.544-.183 1l-.079.311c-.78 3.041-3.189 10.854-5.738 28.413h.024c-.372 2.568-2.4 17.088-1.176 19.308 1.644.156 12.252 1.044 13.764.54.264-.42.492-.862.684-1.32 2.868-6.18 5.364-15.84 6.672-22.464 2.256-11.4 6.048-45.732 4.128-57.528a5.508 5.508 0 0 1-.492-1.512zm65.365-12.704-.097.008c-.12 0-13.908 19.476-23.076 19.2-10.272-.324-22.536-4.74-25.716-5.316.109 4.145 2.128 16.33 4.612 29.834l.209 1.128.21 1.133c.21 1.136.424 2.278.64 3.423l.216 1.146.397 2.094.104.544.208 1.088.208 1.086.104.542.208 1.082c3.198 16.567 6.393 31.879 7.008 33.928a49.2 49.2 0 0 0 9.888.768c.49-1.793.562-9.424.386-17.489l-.02-.881-.025-1.007c-.177-6.715-.516-13.438-.917-17.09-.033-.298-.451-3.175-.902-6.25l-.1-.687c-.495-3.367-.996-6.76-1.046-7.1l-.004-.028c-.72-4.752-.828-2.892-1.488-8.148a.216.216 0 0 1 .408-.108c.216.528.576 1.404.816 2.148.544 1.816.906 3.681 1.08 5.568 3.84-.108 9.588-.9 12.744-3.108 16.152-11.328 19.68-30.72 21.336-34.596l.012-.06c-1.24-.744-5.933-2.748-7.283-2.849l-.12-.003zm-68.965 76.916h-.036c-.36 1.524-.72 2.976-1.056 4.344l13.416.654.903.044 1.243.06.828.041.825.04.82.04c7.083.347 13.463.662 14.437.717-.396-1.68-.816-3.6-1.272-5.712a285.828 285.828 0 0 1-30.108-.228zm2.076-11.028a132.61 132.61 0 0 1-1.272 7.2c7.38.144 17.76.12 28.368-.288a918.53 918.53 0 0 1-1.332-6.636c-9.3.276-16.62.252-25.764-.276zm-50.4-16.968c.185.977.254 1.972.204 2.964a20.592 20.592 0 0 1-4.356 5.04.636.636 0 0 1-.648-.084 36.264 36.264 0 0 1-4.8-4.8 9.732 9.732 0 0 1 .108-2.472 169.2 169.2 0 0 1-17.184 3.888c.336 2.016 1.728 10.404 1.848 12.444 2.395-.27 10.383-.58 18.725-.828l.964-.029 1.447-.041.964-.027 1.156-.031c7.494-.202 14.504-.34 17.172-.34l.023-.167c.11-.818.357-3.095.61-5.529l.073-.72.074-.721c.233-2.28.448-4.474.54-5.523-4.536.072-13.584-1.824-16.92-3.024zm-65.922 9.185-1.05.02a20.208 20.208 0 0 1-.432 4.26c6.324 0 13.932-.06 20.712-1.513a16.8 16.8 0 0 0-1.2-2.616c-3.326-.447-10.519-.291-18.03-.151zm-1.518.02-3.504.083-1.62.12a24.42 24.42 0 0 0-.276 3.864l4.512.18c.418-1.387.715-2.809.888-4.248zm-6.096.131-8.688.168c-.096.24-.468.9-1.356 2.844a51.9 51.9 0 0 0 9.708.996c-.02-1.343.092-2.686.336-4.008zm125.556-6.696v.024c-.42 3.9-.888 8.532-1.116 10.44 5.832.168 18.792-.06 24.408-.228-.576-3.036-1.224-6.492-1.848-9.912-9.276.192-14.46.084-21.444-.324zM38.509 47.265h-3.996c.08 1.737.108 2.192.111 2.432v.093l-.003.115c-.012.288-.132 1.308-.444 1.404-.312.096-.564-1.212-.564-1.56-.06-.827-.06-1.657 0-2.484-.492.012-1.944.036-2.4.108-.108.323-.101.843-.096 1.381l.003.324c0 .916-.068 1.784-.771 1.727-4.68-.408-11.556.612-15.156 3.6C9.6 59.073 7.285 66.117 6.769 73.401c-.66 9.36 4.032 15.876 13.128 17.052 1.548.244 3.123.276 4.68.096 5.28-.672 12.192-4.428 16.536-7.464l-.228-5.052c-5.028-2.52-14.208-3.828-20.988-1.488a.205.205 0 0 1-.144-.384c.492-.192.972-.36 1.476-.516-.06-.936.048-4.068.12-4.908.036-.552.276-3.324.672-3.312.285.009.334 1.473.338 2.539v.491l-.002.462a37.2 37.2 0 0 1-.408 4.5 24.312 24.312 0 0 1 3.324-.66c-.012-.31-.098-2.28-.173-4.273l-.023-.629c-.048-1.328-.088-2.59-.093-3.29v-.223c0-.164.005-.276.013-.32.084-.469.384-.469 4.956-.949.012-.672.048-1.632.504-1.776 1.27-.23 2.552-.394 3.84-.492.072-.324.42-1.308.42-1.428a2.328 2.328 0 0 1 2.88-1.2c1.104.516 1.26 1.26 1.572 2.256 1.416 0 3.852-.54 4.404 0 .273.43.411.931.396 1.44 1.14-.048 3.672-.192 4.26.168.3.24.36.456.432 2.4.133 2.014.152 5.378.155 9.008v1.912a1.404 1.404 0 0 1 .277 2.22 1.668 1.668 0 0 1 .36 2.4 1.38 1.38 0 0 1-.672 1.992c-.048 3.096-.12 5.736-.228 6.936-.036.504-.048 1.104-.48 1.2-.636.132-20.604 1.56-21.204 1.032a6.384 6.384 0 0 1-.468-2.124c-1.94.382-3.934.398-5.88.048.444 1.38 1.164 3.552 1.74 4.896.96-.06 4.404-.264 8.772-.468a.48.48 0 0 1 .336-.144c2.43 0 6.965-.165 11.563-.29l.985-.026c2.298-.059 4.576-.104 6.578-.11h.84c2.465.009 4.415.089 5.306.294.42-5.196.816-13.968 1.2-15.432-1.524-1.38-4.368-3-6.42-6.36a.205.205 0 0 1 .324-.252c.432.456.936.876 1.452 1.344 4.241 3.81 5.214 4.632 6.408 5.452l.177.12.276.186.195.129c.335.221.718.473 1.2.797-.936-6.228 1.596-13.296 4.8-18.696C49.057 48.19 43.177 51.093 42.529 50.361c-.24-.276 0-.48 0-1.872a4.332 4.332 0 0 0-.192-1.2h-2.928c.108 1.644.12 2.244.108 2.532-.012.288-.132 1.308-.444 1.404-.312.096-.564-1.212-.564-1.56-.049-.799-.049-1.6 0-2.4zm6.768 36.072a25.008 25.008 0 0 0-3.192.216v.036c-.336.636-8.592 5.928-15.216 7.296.045.63.137 1.256.276 1.872 1.214.112 5.153-.15 9.286-.489l.956-.08.382-.032.764-.065c4.063-.352 7.9-.731 9.096-.858.086-.676.12-2.33.134-4.01l.005-.592c.002-.492.004-.977.004-1.43v-1.096a4.992 4.992 0 0 1-2.495-.768zm40.884-35.16a36.636 36.636 0 0 0-10.8 5.304c-8.808 6.048-18.744 25.836-9.24 34.728 2.196 2.064 6.132 2.616 9.12 2.616a194.208 194.208 0 0 0 27.132-6.6c1.572-.6 3.156-1.188 4.8-1.8.504-.192 1.32-.384 2.004-.66.96-.372.96-.504.96-1.044a21.468 21.468 0 0 0-.336-5.748 13.884 13.884 0 0 0-1.644-.804c-8.1-3.492-23.34-7.38-31.74-3.276a.21.21 0 0 1-.192-.372 20.28 20.28 0 0 1 7.74-1.956c-.144-2.4-.336-3.936.732-6.108a.205.205 0 1 1 .396.108c-.072.336-.072 1.188-.072 1.836-.012.12-.396 3.816-.396 4.128a47.568 47.568 0 0 1 11.592 1.032c.372-4.932.696-9.384.828-10.932a.768.768 0 0 1-.456-.372 31.8 31.8 0 0 1-1.056-3.072c-.288.288-.54.54-.708.732-.468.48-1.14-.084-1.668-.54a90.384 90.384 0 0 1-6.996-7.2zm26.196.132a81.744 81.744 0 0 1-9.204 7.788c-.372.144-.54-.072-.744-.3-.19.917-.5 1.805-.924 2.64a.996.996 0 0 1-.252.168c.192 1.454.64 5.016 1.088 8.673l.1.813c.131 1.085.262 2.164.384 3.186a46.692 46.692 0 0 1 7.572 2.916c.197.116.34.306.396.528a8.328 8.328 0 0 0 1.992-.54c.132.036-.624-2.652 0-3.852a1.032 1.032 0 0 1 1.488-.372c1.152.576.948 1.752 1.428 2.748.06.12.312.12.564.12l1.488.216c-.576-2.784-1.38-6.912-1.92-10.104a.192.192 0 0 1 .168-.24l.054-.009.023-.002c.15-.004.165.187.488 1.818l.05.256c.182.907.449 2.205.86 4.059l.143.639c.246 1.1.54 2.377.89 3.86a3.6 3.6 0 0 1 .864 1.991c.24.516-.54.636-1.08.78-1.608.456-5.304 1.488-6.648 2.544-.6.48-.192.216-.396 2.184-.048.54-.084 1.176-.504 1.392a12 12 0 0 1-2.292.9l-4.14 1.512c.036.456.108.84.108 1.2a82.8 82.8 0 0 0 13.824 2.964c3.522.434 7.096.022 10.428-1.2a11.076 11.076 0 0 0 4.2-2.688 15.708 15.708 0 0 0 2.856-3.6c1.176-2.076 1.476-5.1.768-8.7a27.516 27.516 0 0 0-7.524-13.788v-.048a57.768 57.768 0 0 0-16.596-10.452zm45.156 28.056c-.18 2.82-.42 5.928-.732 9.36.365.005.835.008 1.388.01h1.082c5.167-.008 14.834-.118 17.834-.178-.114-.66-.435-2.463-.764-4.299l-.131-.733-.677-3.764c-1.534.018-2.919.028-4.192.03h-1.066c-2.6-.005-4.743-.045-6.815-.12l-.826-.033c-1.648-.068-3.282-.159-5.101-.273zM44.1 78.01a.408.408 0 0 1-.192.24 5.16 5.16 0 0 1-2.004-.132l.24 4.944a11.208 11.208 0 0 1 3.492-.336c.948.552 3.096.972 3.096-.12 0-.096-.348-.168-.444-.168-.4.041-.801.041-1.2 0a.492.492 0 1 1 0-.984c.84-.108 1.14.084 1.608-.192v.036a.216.216 0 0 0 .12-.204.84.84 0 0 0-.648-.84c-.432-.096-.18-.024-1.632.132a.516.516 0 0 1-.168-1.008c.12-.024 1.296-.192 1.596-.3.3-.108.612-.24.516-.6-.096-.36-.408-.36-.72-.36a4.62 4.62 0 0 0-1.596.396c-.564.048-.852-.12-.732-.864.212-.727.29-1.488.228-2.244-1.056-.264-1.284 1.596-1.56 2.604zm69.372-3.432c-.36.636-1.596.552-2.58.636.16.893.26 1.795.3 2.7 1.896-1.308 6.444-2.316 7.38-2.604a3.264 3.264 0 0 0-.444-1.296 10.128 10.128 0 0 1-3-.408c-.972-.732-.504-2.196-1.368-2.688-.54-.324.072 3.024-.288 3.66zm-69.444-9.66c.044.664.028 1.331-.048 1.992a.684.684 0 0 1-.204.276c-.996.852-10.464 1.104-12.612.852-1.128-.12-1.2-.24-1.2-2.004-.948.096-3.096.312-4.044.456 0 .444.096 4.116.216 8.136v.036a29.46 29.46 0 0 1 15.48 2.568.48.48 0 0 1 .252.3c.545.066 1.094.098 1.644.096a5.592 5.592 0 0 1 .888-2.676c.357-.44.943-.624 1.488-.468.996.216.744 1.812.576 2.796a5.028 5.028 0 0 1 1.332-.192v-.45c-.004-2.632-.038-9.711-.252-11.718a31.2 31.2 0 0 0-3.516 0zm113.964-.48v.024c-.024 2.664-.12 5.364-.252 8.004.388.007.926.01 1.575.011h1.051c4.372-.007 11.822-.083 14.39-.083-.468-2.7-.9-5.244-1.284-7.572-6.024.036-9.552-.012-15.48-.384zm-.504-11.244c.303 2.445.468 4.905.492 7.368.234.004.534.006.889.007h.883c3.64-.004 10.51-.079 13.048-.079-.3-1.956-.732-5.004-.876-6.972-2.448 3.432-11.196 4.032-14.436-.324zM176.1 25.281c-.312.024-1.188.06-1.452.12-2.376 2.64-5.304 2.976-8.988 2.64a30.18 30.18 0 0 1-5.712-1.2c-2.604-.468-1.92 3.996-2.196 6.228-.192 1.2-.768 1.176-1.392.336l-.085-.113-.15-.2a15.02 15.02 0 0 0-.51-.659c-.995-1.116-3.887-1.032-3.6 1.452.253 2.124 2.917 2.484 3.337 3.324h-.036c1.14 2.244 2.568 9.708 2.52 9.96l-.408 3.492c1.668 6.84 14.568 5.064 14.088.708-1.788-4.003-2.137-4.66-2.15-4.899v-.031c.003-.044.02-.075.038-.122a.492.492 0 0 1 .276-.264s2.64-1.104 4.548-5.676a29.7 29.7 0 0 0 1.968-11.28 31.476 31.476 0 0 0-.096-3.816zm-69.9 21.492c-.648.36-5.088 3.36-6.288 4.392.528.816 2.412 3.048 3.132 3.852 1.44-1.056 6.252-5.04 8.4-6.9v-.072a22.584 22.584 0 0 0-5.244-1.272zm-13.656-.084a41.64 41.64 0 0 0-5.376 1.212c2.1 2.184 5.832 6.132 7.2 7.116.972-.984 3.144-2.868 4.032-3.816l-5.856-4.512zM57.373 33.717c.46.064.901.224 1.296.468 1.548 1.128 2.172 2.616 1.2 4.332 1.332 0 3.48 2.052 3.36 5.148a3.684 3.684 0 0 1-1.332 2.496 4.632 4.632 0 0 1-3.78.9c0 2.796-2.568 3.696-5.316 3.204a4.176 4.176 0 0 1-3.348-3.408.636.636 0 0 0 .588 0c.588-.192 1.104-1.212 1.32-1.8a4.56 4.56 0 0 0 4.32-1.74 4.224 4.224 0 0 0 .276-4.704 3.396 3.396 0 0 0 1.752-2.772 5.604 5.604 0 0 0-.336-2.124zm42.48-14.4a6.48 6.48 0 0 1-1.956 1.308 4.932 4.932 0 0 1-3.384.252 4.536 4.536 0 0 1-.456 1.656c-.52.6-1.25.974-2.04 1.044a3.468 3.468 0 0 1-.348 2.46 2.88 2.88 0 0 1-3.096.876 4.02 4.02 0 0 0-1.74-.888c-.852-.048-1.104.96-1.104 1.776.36.984 1.332 1.524 2.136 2.184 1.224.648 1.248.576 1.416.816.516.828.18 6.792 4.488 9.204a.528.528 0 0 1 .264.516l-.648 5.58c3.913 3.025 4.64 3.535 4.984 3.762l.045.029.02.014.085.055.021.014.045.03c.061.043.133.095.236.172l.083.062.097.074 6.216-4.224-.984-5.772a.504.504 0 0 1 .192-.468 9.912 9.912 0 0 0 3.096-4.38 13.2 13.2 0 0 0 1.02-5.352c0-.6.624-1.26 1.2-1.884l.372-.42c.564-1.068.9-1.548.564-2.628a1.368 1.368 0 0 0-1.572-.768c-1.728.276-1.236 2.52-2.136 2.292-.9-.228-.648-2.184-.768-2.832a1.308 1.308 0 0 1 0-.24 2.52 2.52 0 0 1-2.916-2.532v-.48c-.37.219-.777.365-1.2.432a1.896 1.896 0 0 1-1.74-.852 3.996 3.996 0 0 1-.492-.888zM34.62 21.093l-.672 1.296a24 24 0 0 1-3.492 4.548 10.8 10.8 0 0 1-4.44 2.688c-.312 3.432-.288 8.184 1.584 11.088a8.4 8.4 0 0 0 2.784 2.604c1.608.648 1.548.336 1.44 3.3.965-.047 2.534-.073 4.18-.088l1.243-.01c1.102-.006 2.182-.008 3.082-.01h1.347c-.084-1.2-.204-2.556-.276-3.6a4.128 4.128 0 0 1-.108-2.124c.228-1.284 3.732-5.364 4.404-5.7 2.244-1.104 3.204-4.656 2.004-5.544a2.112 2.112 0 0 0-.912-.372c-.312-.072-.564.156-.78.456-.816 1.068-1.02 2.616-1.548 2.904a.396.396 0 0 1-.552-.168 10.692 10.692 0 0 1-.3-2.796 7.704 7.704 0 0 1-2.988-.696 17.496 17.496 0 0 1-6-7.776zm129.18 19.74c.228-.072.66.708 1.2 1.08.54.372 2.196.732 2.172 1.032-.024.3-1.164.432-2.004.192-1.644-.492-1.644-2.22-1.368-2.304zM35.173 39.201c.24.06.276.96-.312 1.548-.792.792-2.316.696-2.316.312-.024-.3 1.14-.66 1.68-1.116.192-.165.333-.297.44-.4l.136-.137c.228-.233.212-.247.372-.207zm191.88-9.036c-.38 1.012-.68 2.05-.9 3.108-.492.9-1.404-.564-2.544-1.104a1.068 1.068 0 0 0-.288-.108c-.816.852.756 1.872 1.584 2.628.456.432-.588 1.392-1.788 3.216a46.98 46.98 0 0 1 5.1 2.028c.132-.504 1.188-4.068 1.656-4.368 1.332-.816 3.132-1.86 3.228-3.408l.012-.06c.036-.576-.996-.096-1.704.6-.438.439-.84.913-1.2 1.416a.492.492 0 0 1-.9-.348c.026-.264.121-.516.276-.732a7.536 7.536 0 0 0 1.2-2.94c.024-.588-.684-.372-1.272.492a11.688 11.688 0 0 0-1.332 3.012.516.516 0 0 1-.984-.312c.35-.93.596-1.895.732-2.88.156-1.44-.24-1.716-.876-.24zM101.447 36.3l.056.004a.208.208 0 0 1 .162.246c.03.35-.032.702-.18 1.02a2.316 2.316 0 0 1-1.704 1.092 2.04 2.04 0 0 1-.984-.216c-.324-.036-.264-.408 0-.408.47-.15.924-.347 1.356-.588a6.228 6.228 0 0 0 1.104-.984.208.208 0 0 1 .246-.162zm67.688-6.38a.208.208 0 0 1 .246.162 19.26 19.26 0 0 1 1.008 4.56c.072.792.42 2.664-.216 3.384-.636.72-2.124.528-3.036.24a.192.192 0 0 1-.156-.24c.06-.312.336-.024 1.536-.228a2.04 2.04 0 0 0 .9-.336c.07-1.544-.01-3.091-.24-4.62-.036-.468-.204-2.304-.204-2.676a.208.208 0 0 1 .162-.246zm-137.148.75c.103.015.18.1.186.204-.14 1.762-.14 3.531 0 5.292.216.072.588.072.816.072l.732.084a.204.204 0 1 1 0 .408c-.78.18-2.232.516-2.52-.24a5.844 5.844 0 0 1-.132-1.476c-.071-1.432.162-2.864.684-4.2a.216.216 0 0 1 .234-.143zm132.858 2.052c.287.013.51.253.504.54v.996a.516.516 0 1 1-1.032 0v-1.032a.528.528 0 0 1 .528-.504zm-136.938-.03a.518.518 0 0 1 .474.558c-.012.144.024.468 0 .72a.517.517 0 0 1-1.032.072 5.628 5.628 0 0 1 0-.876.518.518 0 0 1 .558-.474zm145.002-.174a.516.516 0 0 1 .516.528v.996a.528.528 0 0 1-1.044 0v-1.02a.516.516 0 0 1 .528-.504zm-136.346-.171a.516.516 0 0 1 .314.243c.09.345.126.7.108 1.056a.517.517 0 0 1-1.032.072c-.072-.972-.084-1.152.216-1.32a.516.516 0 0 1 .394-.051zm62.108-4.35c.1 0 .186.068.21.165v4.512c.301.137.62.23.948.276.16.052.332.052.492 0 .08-.079.208-.079.288 0 .528.564-2.16 1.26-2.652.144a2.976 2.976 0 0 1-.036-.864c-.074-1.377.109-2.757.54-4.068a.216.216 0 0 1 .21-.165zm64.614 1.941c.72-.156 1.824.036 1.824.42-.048.348-2.976 1.068-3.252.78-.276-.288.708-1.044 1.428-1.2zm8.46.096c0-.216.696-.672 1.608-.384.912.288 1.296 1.056 1.2 1.2-.18.264-2.808-.6-2.808-.816zM36.12 29.577c2.076.264 4.032 1.872-.192.996-.324-.072-1.56-.396-1.584-.696-.024-.3 1.236-.372 1.776-.3zm-6.588.408c.012.216-.684.636-1.104.744-.439.156-.921.135-1.344-.06-.288-.216.492-.78 1.068-.936.564-.156 1.368.036 1.38.252zm64.284-1.272a.528.528 0 0 1 .588.432c.072.3.072.648.072.972a.517.517 0 0 1-1.032.072c-.06-.408-.06-.66-.06-.876a.516.516 0 0 1 .432-.6zm9.108.012a.528.528 0 0 1 .684.768v.54a.516.516 0 1 1-1.032 0c0-.408-.12-1.008.348-1.308z" fill="#1F1F1F" fill-rule="evenodd"/>
</svg>
