<svg width="16" height="17" viewBox="0 0 16 17" fill="none" xmlns="http://www.w3.org/2000/svg">
<path d="M8.00004 1.83334C7.12456 1.83334 6.25766 2.00578 5.44882 2.34081C4.63998 2.67584 3.90505 3.16691 3.286 3.78596C2.03575 5.03621 1.33337 6.7319 1.33337 8.50001C1.33337 10.2681 2.03575 11.9638 3.286 13.2141C3.90505 13.8331 4.63998 14.3242 5.44882 14.6592C6.25766 14.9942 7.12456 15.1667 8.00004 15.1667C9.76815 15.1667 11.4638 14.4643 12.7141 13.2141C13.9643 11.9638 14.6667 10.2681 14.6667 8.50001H13.3334C13.3334 9.9145 12.7715 11.2711 11.7713 12.2712C10.7711 13.2714 9.41453 13.8333 8.00004 13.8333C6.58555 13.8333 5.229 13.2714 4.2288 12.2712C3.22861 11.2711 2.66671 9.9145 2.66671 8.50001C2.66671 7.08552 3.22861 5.72897 4.2288 4.72877C5.229 3.72858 6.58555 3.16668 8.00004 3.16668V1.83334ZM12.52 2.50001C12.4067 2.50001 12.2867 2.54668 12.2 2.63334L11.3867 3.44001L13.0534 5.10668L13.8667 4.30001C14.04 4.12668 14.04 3.83334 13.8667 3.66668L12.8334 2.63334C12.7467 2.54668 12.6334 2.50001 12.52 2.50001ZM10.9134 3.91334L6.00004 8.83334V10.5H7.66671L12.58 5.58001L10.9134 3.91334Z" fill="#1A5DFA"/>
</svg>
