<svg width="20" height="20" viewBox="0 0 20 20" fill="none" xmlns="http://www.w3.org/2000/svg">
<path d="M9.99996 2.5L1.66663 10H4.16663V16.6667H9.16663V11.6667H10.8333V13.425L12.5 11.7583V10H7.49996V15H5.83329V8.49167L9.99996 4.74167L14.1666 8.49167V10.0917L16.1916 8.06667L9.99996 2.5ZM17.5333 9.28333C17.4166 9.28333 17.3 9.33333 17.2083 9.41667L16.375 10.25L18.0833 11.9583L18.9166 11.125C19.0916 10.95 19.0916 10.6583 18.9166 10.4833L17.85 9.41667C17.7666 9.33333 17.65 9.28333 17.5333 9.28333ZM15.8833 10.7333L10.8333 15.7833V17.5H12.55L17.5916 12.4417L15.8833 10.7333Z" fill="#E4E7EC"/>
</svg>
