<svg width="36" height="36" viewBox="0 0 36 36" fill="none" xmlns="http://www.w3.org/2000/svg">
<g clip-path="url(#clip0_651_12067)">
<path d="M35.9054 13.5232C34.3509 1.38291 18.1065 -3.21064 8.35358 2.32387C-6.30764 10.6113 -0.130984 28.0859 14.9689 30.0918L15.1724 30.1331C15.6492 30.2285 15.7764 30.3557 15.8082 30.4097C15.8686 30.5051 15.8368 30.6926 15.8113 30.7944C15.6047 31.6654 15.3472 32.5078 15.5157 33.4837C16.0084 36.0905 18.7487 34.8062 20.1347 33.9002C21.8863 32.8702 23.5393 31.7099 24.7791 30.8134C30.6538 26.719 36.8527 21.6295 35.9022 13.5264L35.9054 13.5232ZM11.2051 19.0228H8.09926C7.62878 19.0228 7.26003 18.6286 7.26003 18.1581V11.6413C7.26003 10.5223 8.91625 10.5192 8.91625 11.6413V17.2966H11.2051C12.3241 17.3697 12.3272 18.9528 11.2051 19.026V19.0228ZM14.4603 18.1359C14.3872 19.2548 12.8041 19.258 12.731 18.1359V11.6191C12.8041 10.5001 14.3872 10.4969 14.4603 11.6191V18.1359ZM22.1247 18.1359C22.1501 18.9338 21.0534 19.2994 20.602 18.635L17.5566 14.4197V18.1359C17.4835 19.2548 15.8272 19.258 15.8272 18.1359V11.8034C15.8272 10.9992 16.9081 10.64 17.369 11.3043L20.4335 15.5164V11.6159C20.4335 10.4969 22.0993 10.4937 22.1279 11.6159L22.1215 18.1327L22.1247 18.1359ZM28.3141 18.8797H24.1083C23.6379 18.8797 23.2596 18.4855 23.2596 18.0151C23.2596 16.3906 23.2596 13.1322 23.2596 11.5078C23.2596 11.0373 23.641 10.6686 24.1083 10.6686H28.1837C29.3027 10.6686 29.3059 12.3248 28.1837 12.3248H24.973V13.9079H27.5766C28.6955 13.9079 28.6987 15.5641 27.5766 15.5641H24.973V17.1472H28.3141C29.4331 17.1472 29.4362 18.8034 28.3141 18.8766V18.8797Z" fill="#14CB42"/>
</g>
<defs>
<clipPath id="clip0_651_12067">
<rect width="36" height="36" fill="white"/>
</clipPath>
</defs>
</svg>
