<svg width="20" height="20" viewBox="0 0 20 20" fill="none" xmlns="http://www.w3.org/2000/svg">
<path d="M3.33333 3.33331V4.99998H16.6667V3.33331H3.33333ZM3.33333 5.83331L2.5 9.99998V11.6666H3.33333V16.6666H10.8333C10.7917 16.3833 10.7667 16.0916 10.7667 15.7916C10.7667 14.775 11.0833 13.775 11.6667 12.9416V11.6666H12.95C13.7833 11.1083 14.7583 10.8 15.7583 10.8C16.35 10.8 16.9417 10.9083 17.5 11.1166V9.99998L16.6667 5.83331H3.33333ZM5 11.6666H10V15H5V11.6666ZM15 12.5V15H12.5V16.6666H15V19.1666H16.6667V16.6666H19.1667V15H16.6667V12.5" fill="#E4E7EC"/>
</svg>
